<svg width="32" height="32" viewBox="0 0 32 32" fill="none" xmlns="http://www.w3.org/2000/svg">
<g id="chevrons-right">
<path id="Vector " fill-rule="evenodd" clip-rule="evenodd" d="M7.05721 8.39052C7.57791 7.86983 8.42213 7.86983 8.94283 8.39052L15.6095 15.0572C16.1302 15.5779 16.1302 16.4221 15.6095 16.9428L8.94283 23.6095C8.42213 24.1302 7.57791 24.1302 7.05721 23.6095C6.53651 23.0888 6.53651 22.2446 7.05721 21.7239L12.7811 16L7.05721 10.2761C6.53651 9.75544 6.53651 8.91122 7.05721 8.39052ZM16.3905 8.39052C16.9112 7.86983 17.7554 7.86983 18.2761 8.39052L24.9428 15.0572C25.4635 15.5779 25.4635 16.4221 24.9428 16.9428L18.2761 23.6095C17.7554 24.1302 16.9112 24.1302 16.3905 23.6095C15.8698 23.0888 15.8698 22.2446 16.3905 21.7239L22.1144 16L16.3905 10.2761C15.8698 9.75544 15.8698 8.91122 16.3905 8.39052Z" fill="#2F363D"/>
</g>
</svg>
